<?xml version="1.0" encoding="iso-8859-1"?>
<!-- Generator: Adobe Illustrator 19.0.0, SVG Export Plug-In . SVG Version: 6.00 Build 0)  -->
<svg version="1.1" id="Layer_1" xmlns="http://www.w3.org/2000/svg" xmlns:xlink="http://www.w3.org/1999/xlink" x="0px" y="0px"
	 viewBox="0 0 512 512" style="enable-background:new 0 0 512 512;" xml:space="preserve">
<g>
	<g>
		<path d="M256,0c-66.361,0-120.351,53.99-120.35,120.351v2.04c0,5.632,4.566,10.199,10.199,10.199h71.394
			c5.633,0,10.199-4.567,10.199-10.199c0-8.002,3.223-15.419,9.077-20.883c5.846-5.459,13.494-8.159,21.526-7.604
			c14.1,0.973,25.467,12.34,26.439,26.44c0.777,11.269-5.141,21.973-15.08,27.271c-20.315,10.828-39.772,25.475-57.832,43.533
			c-24.193,24.195-43.1,52.489-56.193,84.101c-13.094,31.611-19.732,64.987-19.732,99.203v127.35
			c0,5.632,4.566,10.199,10.199,10.199h220.303c5.633,0,10.199-4.567,10.199-10.199v-381.45C376.351,53.99,322.361,0,256,0z
			 M355.952,491.602H156.048V374.451c0-63.794,24.842-123.77,69.951-168.878c16.633-16.634,34.465-30.076,53.002-39.957
			c17.024-9.074,27.166-27.396,25.836-46.675c-1.67-24.205-21.181-43.717-45.386-45.388c-13.738-0.937-26.823,3.686-36.85,13.044
			c-7.364,6.874-12.389,15.867-14.474,25.595h-51.75c4.167-51.31,47.257-91.793,99.623-91.793c55.114,0,99.952,44.839,99.952,99.952
			V491.602z"/>
	</g>
</g>
<g>
	<g>
		<path d="M317.705,363.092h-123.41c-5.633,0-10.199,4.567-10.199,10.199c0,5.632,4.566,10.199,10.199,10.199h123.41
			c5.633,0,10.199-4.567,10.199-10.199C327.904,367.659,323.338,363.092,317.705,363.092z"/>
	</g>
</g>
<g>
	<g>
		<path d="M317.705,406.948h-17.849c-5.633,0-10.199,4.567-10.199,10.199c0,5.632,4.566,10.199,10.199,10.199h17.849
			c5.633,0,10.199-4.567,10.199-10.199C327.904,411.515,323.338,406.948,317.705,406.948z"/>
	</g>
</g>
<g>
	<g>
		<path d="M259.06,406.948h-64.765c-5.633,0-10.199,4.567-10.199,10.199c0,5.632,4.566,10.199,10.199,10.199h64.765
			c5.632,0,10.199-4.567,10.199-10.199C269.259,411.515,264.693,406.948,259.06,406.948z"/>
	</g>
</g>
<g>
</g>
<g>
</g>
<g>
</g>
<g>
</g>
<g>
</g>
<g>
</g>
<g>
</g>
<g>
</g>
<g>
</g>
<g>
</g>
<g>
</g>
<g>
</g>
<g>
</g>
<g>
</g>
<g>
</g>
</svg>
